#!OML:ASF H:\Pregnant\Project 1\Capture day 1\Session 1\femalepreg.ASF
:FULLY-SPECIFIED
:DEGREES
561
root 3.12141 15.7459 -28.1598 -157.349 52.4894 -178.614
lowerback -16.0298 0.582323 1.98086
upperback -7.85701 1.20789 1.552
thorax 0.637589 0.907878 0.705586
lowerneck -17.0556 -9.22187 -3.99064
upperneck 39.6031 -12.5195 4.76035
head 18.3542 -4.09045 0.632621
rclavicle 9.28821e-014 6.04305e-014
rhumerus -19.5674 47.1665 -95.5045
rradius 106.733
rwrist -34.989
rhand -5.64301 -15.8305
rfingers 7.12502
rthumb 20.1755 -44.8028
lclavicle 9.28821e-014 6.04305e-014
lhumerus -64.5153 -10.2314 96.0757
lradius 37.9405
lwrist 40.6283
lhand -28.4611 -7.87291
lfingers 7.12502
lthumb -1.83121 22.099
rfemur -43.9242 37.6326 17.086
rtibia 44.9171
rfoot -16.6714 0.494721
rtoes -5.35976
lfemur -65.6219 -17.5064 -1.00026
ltibia 54.0979
lfoot -11.6798 -11.9864
ltoes -26.648
562
root 3.1322 15.7438 -28.2562 -157.145 53.8859 -178.301
lowerback -16.032 0.66857 2.1947
upperback -7.70991 1.25913 1.54789
thorax 0.798002 0.916809 0.591515
lowerneck -17.04 -9.19799 -3.94477
upperneck 39.3985 -12.5684 4.82311
head 18.2354 -4.12548 0.635253
rclavicle -1.01753e-014 -3.97569e-015
rhumerus -19.718 47.6945 -95.8082
rradius 106.265
rwrist -35.0486
rhand -4.74944 -15.8119
rfingers 7.12502
rthumb 21.0341 -44.6911
lclavicle -1.01753e-014 -3.97569e-015
lhumerus -63.9908 -9.72607 95.6893
lradius 37.5047
lwrist 40.5078
lhand -28.793 -7.77825
lfingers 7.12502
lthumb -2.15177 22.1906
rfemur -43.7335 38.3189 16.8005
rtibia 44.8831
rfoot -17.0066 0.995761
rtoes -5.0571
lfemur -65.2054 -18.3977 0.386889
ltibia 52.2812
lfoot -12.3101 -12.513
ltoes -26.9891
563
root 3.14356 15.739 -28.3522 -156.874 55.2947 -177.93
lowerback -16.0361 0.788169 2.43749
upperback -7.57511 1.3531 1.52833
thorax 0.947825 0.947694 0.452003
lowerneck -16.9758 -9.20205 -4.04816
upperneck 39.1796 -12.6561 5.02152
head 18.1315 -4.17826 0.719135
rclavicle 1.11319e-014 -1.55052e-014
rhumerus -19.9168 48.1017 -96.1271
rradius 105.68
rwrist -35.0356
rhand -3.87057 -15.8712
rfingers 7.12502
rthumb 21.8782 -44.6543
lclavicle 1.11319e-014 -1.55052e-014
lhumerus -63.4879 -9.31603 95.3469
lradius 37.0839
lwrist 40.3771
lhand -29.125 -7.6633
lfingers 7.12502
lthumb -2.47241 22.3021
rfemur -43.5775 38.9842 16.5223
rtibia 44.8571
rfoot -17.3495 1.5663
rtoes -4.73777
lfemur -64.7835 -19.3563 1.86332
ltibia 50.461
lfoot -12.8834 -12.8781
ltoes -27.3299
564
root 3.15614 15.7321 -28.4481 -156.51 56.7329 -177.472
lowerback -16.0438 0.904713 2.67951
upperback -7.45247 1.44503 1.53117
thorax 1.08659 0.979524 0.336211
lowerneck -16.898 -9.20699 -4.25461
upperneck 38.975 -12.7337 5.2896
head 18.0521 -4.23054 0.854784
rclavicle 2.74074e-014 2.5842e-014
rhumerus -20.1974 48.4935 -96.5045
rradius 104.965
rwrist -34.9443
rhand -3.02832 -15.9668
rfingers 7.12502
rthumb 22.6868 -44.6533
lclavicle 2.74074e-014 2.5842e-014
lhumerus -63.0099 -8.89458 95.0362
lradius 36.6809
lwrist 40.2546
lhand -29.4944 -7.56449
lfingers 7.12502
lthumb -2.82918 22.3965
rfemur -43.4606 39.6458 16.2533
rtibia 44.8438
rfoot -17.7034 2.195
rtoes -4.35479
lfemur -64.3501 -20.357 3.41858
ltibia 48.6562
lfoot -13.4503 -13.1248
ltoes -27.7713
565
root 3.1697 15.7227 -28.5439 -156.048 58.1943 -176.924
lowerback -16.0481 1.0196 2.91537
upperback -7.34439 1.53791 1.55343
thorax 1.20819 1.01368 0.24432
lowerneck -16.8658 -9.21771 -4.51477
upperneck 38.8475 -12.7964 5.54628
head 18.0331 -4.27934 0.996534
rclavicle 2.98177e-016 8.42847e-014
rhumerus -20.565 48.8496 -96.9422
rradius 104.099
rwrist -34.7769
rhand -2.24339 -16.0767
rfingers 7.12502
rthumb 23.4399 -44.6689
lclavicle 2.98177e-016 8.42847e-014
lhumerus -62.5579 -8.48581 94.7721
lradius 36.3014
lwrist 40.1392
lhand -29.9186 -7.47838
lfingers 7.12502
lthumb -3.2388 22.4768
rfemur -43.3913 40.2921 15.991
rtibia 44.8579
rfoot -18.0743 2.86519
rtoes -3.90808
lfemur -63.9206 -21.4114 5.04929
ltibia 46.8854
lfoot -14.0246 -13.3248
ltoes -28.2507
566
root 3.18383 15.7112 -28.6407 -155.495 59.6465 -176.299
lowerback -16.0499 1.11785 3.14984
upperback -7.25381 1.61169 1.59843
thorax 1.30933 1.04005 0.173662
lowerneck -16.8975 -9.23858 -4.77414
upperneck 38.8221 -12.8396 5.71022
head 18.0773 -4.32533 1.09906
rclavicle 2.72583e-014 -7.95139e-016
rhumerus -21.0644 49.1832 -97.4403
rradius 103.101
rwrist -34.5452
rhand -1.50572 -16.2052
rfingers 7.12502
rthumb 24.1474 -44.7054
lclavicle 2.72583e-014 -7.95139e-016
lhumerus -62.1255 -8.05705 94.5348
lradius 35.9407
lwrist 40.0109
lhand -30.3689 -7.40976
lfingers 7.12502
lthumb -3.67369 22.5383
rfemur -43.3578 40.8966 15.7343
rtibia 44.8949
rfoot -18.4663 3.56705
rtoes -3.39069
lfemur -63.5232 -22.5666 6.76028
ltibia 45.162
lfoot -14.5867 -13.5303
ltoes -28.6572
